<?xml version="1.0" encoding="utf-8"?><svg version="1.1" id="Layer_1" xmlns="http://www.w3.org/2000/svg" xmlns:xlink="http://www.w3.org/1999/xlink" x="0" y="0" viewBox="0 0 150 150" style="enable-background:new 0 0 150 150;" xml:space="preserve"><style type="text/css">.st0{fill:#010101;}</style><g transform="translate(0.000000,150.000000) scale(0.100000,-0.100000)"><path class="st0" d="M600.2,1474.62c-14.97-15.97-21.96-36.93-22.96-66.88c-2-41.92,1-64.88,21.96-187.65 c16.97-93.83,9.98-108.8-13.97-30.94c-26.95,91.83-69.87,175.67-94.82,189.65c-25.95,13.97-49.91,2.99-56.89-26.95 c-8.98-32.94,21.96-236.56,44.92-303.44c18.96-57.89,34.94-128.76,26.95-128.76c-2,0-24.95,28.95-50.91,64.88 c-24.95,35.93-53.9,68.87-64.88,74.86c-18.96,9.98-106.8,2.99-114.79-10.98c-4.99-6.99,5.99-39.93,23.96-68.87 c4.99-7.99,29.94-79.85,55.9-158.71c51.9-160.7,56.89-170.68,131.76-257.52c59.89-69.87,68.87-98.82,25.95-87.84 c-15.97,2.99-34.94,11.98-42.92,18.96c-18.96,16.97-61.89,26.95-75.86,17.97c-4.99-3.99-17.97-17.97-26.95-30.94 c-13.97-20.96-13.97-27.95-2.99-49.91c7.99-13.97,23.96-34.94,34.94-45.91l21.96-18.96l-31.94-15.97 c-44.92-20.96-68.87-57.89-61.89-92.83c7.99-38.93,54.9-66.88,98.82-59.89c29.94,4.99,33.94,2.99,33.94-15.97 c0-32.94,17.97-60.89,38.93-60.89c9.98,0,34.94,6.99,53.9,14.97c50.91,20.96,56.89,18.96,56.89-17.97 c0-43.92,29.94-72.87,58.89-57.89c26.95,14.97,26.95,14.97,50.91-23.96c24.95-40.92,44.92-42.92,107.8-14.97 c37.93,16.97,41.92,21.96,41.92,54.9c0,35.93,0,35.93,35.93,28.95c39.93-6.99,53.9,3.99,53.9,42.92 c0,30.94,16.97,36.93,45.91,17.97c33.94-21.96,49.91-13.97,60.89,31.94c5.99,24.95,13.97,36.93,23.96,33.94 c55.9-15.97,63.88-12.98,91.83,28.95c29.94,45.91,31.94,59.89,14.97,92.83c-5.99,11.98-13.97,28.95-17.97,36.93 c-3.99,7.99-19.96,16.97-34.94,19.96l-26.95,4.99l20.96,18.96c32.94,29.94,27.95,71.87-10.98,91.83 c-26.95,13.97-36.93,13.97-70.87,2.99c-20.96-6.99-40.92-18.96-43.92-25.95s-8.98-12.98-13.97-12.98 c-14.97,0-8.98,117.78,9.98,223.59c38.93,216.6,34.94,537.01-7.99,604.88c-7.99,10.98-15.97,11.98-37.93,3.99l-27.95-8.98 l-2-113.79c-2-106.8-5.99-130.76-17.97-118.78c-2.99,2.99-6.99,65.88-8.98,140.74c-3.99,147.73-15.97,189.65-54.9,194.64 c-12.98,2-27.95-1-32.94-5.99c-17.97-17.97-33.94-173.68-31.94-305.43c1-70.87-1-124.77-4.99-119.78 c-3.99,4.99-21.96,97.82-39.93,207.62c-40.92,243.55-44.92,259.52-77.86,285.47C630.15,1503.56,627.15,1503.56,600.2,1474.62z M668.08,1381.79c15.97-56.89,13.97-62.88-19.96-62.88c-30.94,0-31.94,0-24.95,41.92C634.14,1431.7,652.1,1439.68,668.08,1381.79z M869.7,1283.97c3.99-36.93,2-39.93-20.96-39.93s-24.95,2.99-21.96,44.92c1,24.95,4.99,50.91,7.99,58.89 C842.75,1371.81,865.71,1329.88,869.7,1283.97z M517.35,1273.99c18.96-40.92,14.97-54.9-13.97-54.9 c-21.96,0-24.95,2.99-19.96,22.96c2.99,11.98,5.99,29.94,5.99,39.93C489.41,1306.93,504.38,1302.93,517.35,1273.99z M698.02,1239.05c5.99-27.95,10.98-52.9,10.98-54.9c0-2.99-17.97-4.99-39.93-4.99h-39.93v48.91c0,48.91,6.99,58.89,41.92,59.89 C683.05,1288.96,690.03,1274.99,698.02,1239.05z M976.5,1222.08c13.97-29.94,8.98-66.88-9.98-70.87 c-14.97-2.99-17.97,3.99-17.97,41.92C948.56,1240.05,961.53,1253.03,976.5,1222.08z M885.67,1141.23c1-57.89,0-61.89-21.96-67.87 c-36.93-8.98-44.92,2.99-44.92,64.88c0,65.88,3.99,72.86,39.93,68.87C882.68,1204.12,883.68,1200.12,885.67,1141.23z M565.27,1141.23c15.97-61.89,12.98-71.87-24.95-71.87c-22.96,0-27.95,5.99-38.93,44.92c-15.97,59.89-14.97,72.86,5.99,77.86 C542.31,1202.12,552.29,1193.14,565.27,1141.23z M724.97,1086.34l6.99-56.89h-42.92c-23.96,0-40.92,2-37.93,4.99 c2.99,2.99,0,29.94-6.99,59.89l-12.98,53.9l36.93,2.99c19.96,2,38.93,1,42.92-2C714.99,1146.22,720.98,1118.28,724.97,1086.34z M994.47,1105.3c9.98-40.92,1-70.87-20.96-70.87c-14.97,0-20.96,7.99-22.96,32.94c-2,18.96-1,39.93,2,47.91 C961.53,1137.24,987.48,1131.25,994.47,1105.3z M883.68,1015.47c11.98-59.89,3.99-80.85-31.94-83.84l-32.94-2.99v59.89 c0,60.89,0,60.89,29.94,60.89C873.69,1049.4,878.69,1045.41,883.68,1015.47z M608.19,976.54c8.98-30.94,24.95-66.88,35.93-79.85 l18.96-21.96l5.99,24.95c4.99,21.96,9.98,23.96,54.9,22.96c27.95,0,74.86-3.99,105.8-7.99c45.91-5.99,58.89-10.98,67.87-30.94 c13.97-30.94,28.95-30.94,40.92,1c6.99,17.97,14.97,23.96,31.94,20.96c19.96-2.99,22.96-7.99,19.96-46.91 c-2-23.96-3.99-43.92-4.99-44.92c-5.99-4.99-239.56-26.95-292.46-26.95c-96.82,0-94.82-2-151.72,172.68 c-21.96,69.87-17.97,81.85,26.95,77.86C589.22,1034.43,595.21,1025.45,608.19,976.54z M421.53,997.5 c7.99-12.98,17.97-38.93,21.96-58.89c2.99-19.96,17.97-46.91,31.94-59.89c13.97-12.98,33.94-39.93,44.92-60.89 c9.98-19.96,32.94-45.91,49.91-58.89c34.94-24.95,58.89-72.86,58.89-119.78c0-32.94,15.97-35.93,33.94-5.99 c8.98,13.97,4.99,28.95-15.97,66.88c-15.97,27.95-27.95,50.91-27.95,52.9c0,1,38.93,2,86.84,2c48.91,0,109.8,2.99,136.75,6.99 l47.91,7.99L831.77,730c-32.94-20.96-64.88-50.91-70.87-64.88c-14.97-31.94-2-31.94,28.95,1c29.94,31.94,117.78,83.84,142.74,83.84 c15.97,0,17.97-4.99,10.98-41.92c-3.99-23.96-9.98-69.87-14.97-102.81c-3.99-32.94-12.98-71.87-18.96-87.84 c-16.97-44.92-88.84-61.89-134.75-30.94c-17.97,10.98-25.95,11.98-31.94,2.99c-13.97-23.96,27.95-40.92,88.84-35.93 c63.88,5.99,74.86-6.99,24.95-26.95c-57.89-23.96-95.82-27.95-152.72-15.97s-71.87,25.95-31.94,31.94 c32.94,4.99,22.96,21.96-16.97,27.95c-26.95,3.99-41.92,14.97-66.88,49.91c-16.97,24.95-45.91,58.89-63.88,76.86 c-17.97,17.97-55.9,79.85-84.84,137.74c-40.92,82.85-50.91,111.79-44.92,132.75c16.97,65.88,11.98,94.82-21.96,117.78 c-35.93,23.96-32.94,33.94,7.99,33.94C397.58,1019.46,412.55,1011.47,421.53,997.5z M742.94,977.54 c2.99-16.97,4.99-31.94,3.99-33.94c-2-1-20.96-3.99-42.92-5.99c-39.93-2.99-39.93-2.99-42.92,34.94l-2.99,36.93h38.93 C732.96,1009.48,736.95,1006.48,742.94,977.54z M996.47,962.56c-2.99-32.94-6.99-37.93-29.94-40.92 c-23.96-2.99-26.95,0-25.95,29.94c1,42.92,3.99,47.91,33.94,47.91C997.47,999.5,999.46,996.5,996.47,962.56z M374.62,938.61 c8.98-28.95-2-35.93-19.96-12.98c-17.97,23.96-18.96,33.94-1,33.94C361.64,959.57,371.62,950.59,374.62,938.61z M1095.28,473.47 c7.99-19.96-29.94-52.9-62.88-52.9c-20.96,0-21.96,2-12.98,28.95C1033.4,488.44,1083.31,504.41,1095.28,473.47z M515.36,413.58 c23.96-26.95,43.92-49.91,43.92-52.9c0-2.99-17.97-17.97-39.93-33.94c-49.91-36.93-43.92-44.92,11.98-16.97 c32.94,14.97,50.91,17.97,72.87,11.98c32.94-8.98,33.94-18.96,4.99-66.88c-26.95-41.92-63.88-60.89-84.84-43.92 c-8.98,7.99-13.97,21.96-10.98,32.94c3.99,16.97,1,18.96-34.94,12.98c-42.92-6.99-78.85,5.99-78.85,28.95 c0,18.96,44.92,51.9,79.85,59.89c16.97,3.99,29.94,9.98,29.94,12.98c0,3.99-17.97,17.97-39.93,30.94 c-39.93,24.95-54.9,44.92-43.92,61.89C438.5,472.47,473.44,457.5,515.36,413.58z M598.2,426.56 c31.94-27.95,100.81-55.9,140.74-55.9c57.89,0,138.74,27.95,163.7,56.89c18.96,20.96,26.95,24.95,35.93,16.97 c20.96-20.96,5.99-46.91-39.93-69.87c-24.95-12.98-48.91-26.95-54.9-30.94c-18.96-14.97-113.79-13.97-175.67,1 c-66.88,16.97-108.8,49.91-108.8,86.84C559.28,456.5,567.26,455.5,598.2,426.56z M1074.32,380.64c13.97,0,35.93-10.98,49.91-24.95 c34.94-34.94,18.96-64.88-35.93-64.88c-20.96,0-41.92,4.99-44.92,9.98c-2.99,5.99-12.98,9.98-19.96,9.98 c-11.98,0-11.98-5.99-3.99-25.95c10.98-30.94,2.99-63.88-14.97-63.88c-13.97,0-89.83,51.9-100.81,68.87 c-21.96,35.93-34.94-20.96-13.97-60.89c5.99-10.98,7.99-30.94,4.99-43.92c-4.99-19.96-10.98-22.96-33.94-17.97 c-25.95,4.99-28.95,2-39.93-33.94c-19.96-66.88-79.85-64.88-68.87,2.99c4.99,31.94,3.99,35.93-10.98,28.95 c-69.87-29.94-103.81-2.99-76.86,61.89c10.98,25.95,11.98,40.92,4.99,54.9c-9.98,16.97-6.99,18.96,19.96,18.96 c49.91,0,66.88-14.97,74.86-64.88c4.99-39.93,8.98-45.91,27.95-42.92c19.96,2.99,21.96,7.99,18.96,49.91l-2.99,45.91l49.91,16.97 c26.95,8.98,60.89,24.95,74.86,35.93c24.95,18.96,24.95,18.96,84.84-1c32.94-10.98,64.88-19.96,70.87-19.96 c18.96,0,2,16.97-34.94,33.94c-33.94,15.97-50.91,43.92-18.96,31.94C1043.38,383.64,1061.35,380.64,1074.32,380.64z"/></g></svg>