<?xml version="1.0" standalone="no"?>
<!DOCTYPE svg PUBLIC "-//W3C//DTD SVG 20010904//EN"
 "http://www.w3.org/TR/2001/REC-SVG-20010904/DTD/svg10.dtd">
<svg version="1.0" xmlns="http://www.w3.org/2000/svg"
 width="800.000000pt" height="800.000000pt" viewBox="0 0 800.000000 800.000000"
 preserveAspectRatio="xMidYMid meet">
<metadata>
Created by potrace 1.11, written by Peter Selinger 2001-2013
</metadata>
<g transform="translate(0.000000,800.000000) scale(0.100000,-0.100000)"
fill="#000000" stroke="none">
<path d="M1876 7912 c-2 -1 -32 -4 -67 -7 -35 -2 -86 -7 -114 -11 -27 -4 -60
-7 -72 -8 -11 -1 -19 -4 -16 -8 2 -5 -6 -8 -19 -9 -67 -2 -272 -72 -400 -136
-89 -45 -214 -121 -249 -153 -9 -8 -32 -26 -50 -40 -46 -34 -197 -186 -234
-235 -17 -22 -38 -49 -47 -59 -10 -11 -18 -23 -18 -27 0 -4 -6 -14 -13 -21
-23 -24 -77 -111 -77 -125 0 -7 -3 -13 -8 -13 -9 0 -58 -101 -54 -112 1 -5 -2
-8 -7 -8 -4 0 -16 -21 -26 -47 -9 -27 -23 -61 -30 -78 -13 -31 -37 -102 -41
-120 -1 -5 -7 -30 -14 -55 -7 -25 -14 -52 -15 -60 -2 -8 -4 -15 -5 -15 -3 0
-18 -87 -24 -145 -2 -19 -5 -35 -6 -35 -10 0 -21 -413 -11 -430 3 -5 6 -30 8
-55 2 -43 10 -95 13 -95 1 0 4 -11 5 -25 6 -44 12 -75 18 -90 4 -12 9 -31 22
-80 4 -19 28 -89 35 -105 5 -11 21 -49 36 -85 14 -36 33 -72 41 -82 8 -9 16
-23 17 -32 1 -8 19 -39 39 -69 20 -29 37 -56 37 -60 0 -6 17 -28 45 -61 6 -6
30 -36 55 -66 48 -59 216 -230 225 -230 3 0 16 -10 28 -23 12 -13 38 -34 57
-47 19 -14 46 -35 60 -47 14 -13 28 -23 32 -23 3 0 13 -6 20 -13 7 -6 42 -31
78 -54 36 -24 70 -46 76 -50 22 -17 50 -34 74 -45 14 -7 27 -15 30 -18 3 -3
16 -11 29 -18 13 -8 40 -23 60 -34 63 -37 169 -92 446 -233 149 -76 288 -148
311 -161 22 -13 44 -21 47 -17 4 3 7 1 7 -5 0 -7 6 -12 14 -12 7 0 25 -9 40
-21 14 -11 26 -17 26 -14 0 4 6 3 13 -3 6 -5 68 -38 137 -73 69 -35 127 -67
128 -71 2 -5 11 -8 21 -8 9 0 21 -4 27 -9 5 -5 95 -53 199 -107 105 -53 193
-102 197 -108 4 -6 8 -8 8 -4 0 8 103 -45 128 -64 6 -6 12 -7 12 -3 0 4 6 3
13 -3 12 -10 86 -50 237 -128 41 -21 78 -43 82 -49 4 -5 8 -6 8 -2 0 7 58 -21
70 -34 3 -3 21 -11 40 -19 19 -7 42 -19 50 -25 25 -20 100 -55 100 -47 0 4 4
3 8 -3 9 -12 19 -18 152 -85 58 -30 108 -57 111 -62 3 -5 12 -10 20 -12 19 -3
93 -38 99 -47 3 -4 12 -9 20 -11 8 -2 21 -9 28 -16 8 -7 17 -10 22 -7 5 3 10
1 12 -3 1 -5 35 -24 73 -43 39 -20 81 -42 95 -49 14 -8 27 -15 30 -16 25 -6
80 -36 80 -44 0 -6 3 -10 8 -9 15 2 52 -14 52 -23 0 -5 4 -7 9 -3 5 3 16 0 23
-7 8 -7 72 -42 143 -78 72 -36 165 -84 207 -107 43 -22 78 -39 78 -37 0 2 17
-6 38 -19 20 -13 55 -32 77 -42 22 -11 43 -23 46 -28 3 -4 12 -9 20 -11 8 -1
43 -18 79 -36 36 -19 78 -40 95 -48 16 -7 32 -18 36 -23 3 -6 9 -10 13 -10 7
1 29 -10 226 -111 274 -142 385 -201 421 -224 21 -13 41 -24 44 -24 3 0 11 -4
18 -10 30 -25 108 -80 112 -80 6 0 48 -35 81 -67 13 -13 29 -23 35 -23 7 0 10
-2 7 -5 -3 -3 16 -27 41 -53 58 -59 83 -90 118 -144 35 -54 73 -129 73 -145 0
-7 4 -13 8 -13 7 0 28 -59 36 -101 2 -8 6 -25 9 -39 7 -29 16 -85 23 -148 3
-33 1 -42 -8 -36 -10 6 -10 5 0 -8 12 -15 11 -82 -3 -161 -2 -15 -6 -37 -8
-50 -8 -44 -19 -92 -25 -102 -4 -5 -8 -19 -9 -30 -2 -11 -9 -24 -16 -30 -6 -5
-13 -18 -15 -28 -3 -16 -35 -76 -54 -102 -49 -65 -112 -136 -143 -160 -21 -17
-52 -42 -69 -58 -17 -15 -36 -27 -43 -27 -6 0 -18 -6 -25 -13 -21 -20 -78 -49
-78 -40 0 4 -4 3 -8 -3 -14 -19 -172 -77 -272 -98 -139 -30 -303 -34 -435 -9
-16 3 -41 6 -55 6 -14 1 -27 4 -30 7 -3 4 -34 11 -70 18 -70 12 -183 46 -212
62 -10 6 -22 10 -28 10 -32 0 -252 119 -355 192 -77 55 -195 165 -262 245 -21
25 -46 54 -55 64 -10 11 -15 19 -12 19 3 0 -1 7 -8 15 -30 33 -38 45 -38 55 0
5 -4 10 -10 10 -5 0 -10 4 -10 9 0 5 -17 38 -38 72 -21 35 -49 90 -62 122 -13
31 -27 57 -31 57 -3 0 -10 15 -14 33 -8 35 -11 44 -15 52 -1 3 -3 8 -4 13 -1
4 -5 13 -9 19 -5 7 -10 21 -13 30 -27 103 -63 239 -65 241 -3 4 -5 17 -13 82
-4 36 -10 74 -12 85 -2 11 -6 52 -9 90 -3 39 -7 84 -9 100 -1 17 1 38 6 47 5
10 4 19 -2 23 -5 3 -8 19 -6 35 3 26 1 28 -38 32 -23 3 -43 4 -45 2 -2 -2 -4
-21 -4 -43 -1 -23 -4 -41 -8 -41 -3 0 -5 18 -4 39 3 37 1 39 -28 44 -49 7 -63
-1 -61 -34 1 -16 -2 -29 -7 -29 -5 0 -7 11 -5 25 3 13 -1 28 -7 32 -18 11 -77
9 -78 -2 -3 -28 -4 -1932 -1 -1941 2 -8 286 -11 1043 -12 703 0 1037 3 1033
10 -4 5 4 5 16 -2 18 -10 24 -9 32 1 7 11 11 11 15 1 2 -6 9 -10 13 -7 5 3 35
8 67 10 60 5 107 12 158 21 17 4 41 8 55 9 14 2 26 4 28 5 1 1 7 4 12 5 6 1
13 4 18 5 4 1 10 2 15 1 4 -1 24 6 44 14 20 8 38 13 41 10 3 -3 10 -1 16 4 6
4 36 16 66 26 131 42 324 151 463 263 98 77 247 232 281 291 5 9 17 24 26 34
9 9 23 30 31 45 8 15 20 31 27 35 7 5 10 12 7 18 -4 5 -2 9 3 9 5 0 12 8 15
18 3 9 19 40 35 67 50 88 140 317 156 397 2 13 10 47 16 76 7 30 13 61 15 70
2 9 4 17 5 17 2 0 8 50 13 106 3 26 8 52 11 58 4 6 2 11 -4 11 -7 0 -8 5 -3
13 11 17 11 278 0 301 -7 14 -6 16 4 11 8 -6 10 -4 4 6 -5 7 -10 31 -11 54 -1
22 -3 40 -4 40 -1 0 -3 11 -4 25 -6 49 -18 106 -38 180 -11 41 -21 80 -22 85
-2 6 -8 24 -15 40 -6 17 -19 50 -29 75 -53 144 -193 359 -318 487 -23 23 -39
44 -37 47 3 2 -5 7 -16 11 -12 3 -21 10 -21 15 0 5 -39 42 -87 82 -47 40 -95
81 -105 91 -10 9 -18 14 -18 10 -1 -5 -9 1 -18 12 -10 11 -25 25 -34 30 -9 6
-56 37 -105 70 -48 33 -101 67 -118 75 -16 8 -32 17 -35 20 -3 4 -25 17 -50
31 -25 13 -47 27 -50 30 -3 3 -20 12 -37 20 -18 8 -33 17 -33 21 0 5 -6 8 -13
8 -7 0 -55 22 -107 50 -52 28 -98 50 -102 50 -4 0 -8 4 -8 10 0 5 -3 10 -7 9
-16 -2 -53 14 -53 22 0 5 -3 8 -7 7 -10 -2 -362 175 -478 240 -11 6 -37 19
-57 28 -21 9 -38 20 -38 25 0 5 -6 9 -14 9 -8 0 -43 15 -78 34 -35 18 -110 57
-168 87 -58 30 -107 57 -110 60 -3 4 -16 10 -29 14 -13 4 -45 19 -70 34 -25
14 -91 49 -146 76 -55 28 -102 52 -105 55 -3 3 -27 16 -55 30 -27 13 -61 31
-74 39 -13 9 -31 16 -39 17 -8 2 -19 9 -23 16 -5 7 -9 10 -9 5 0 -4 -18 4 -40
18 -22 14 -46 25 -55 25 -8 0 -15 4 -15 9 0 5 -15 15 -32 22 -18 7 -54 25 -80
41 -27 15 -48 25 -48 22 0 -4 -6 -2 -13 4 -7 6 -60 35 -117 65 -279 144 -386
200 -397 209 -7 6 -13 7 -13 3 0 -4 -7 -2 -15 5 -15 12 -91 53 -280 147 -60
31 -111 60 -113 64 -2 5 -10 9 -17 9 -19 0 -65 26 -60 33 3 4 2 5 -1 3 -3 -3
-74 30 -158 73 -83 43 -194 100 -246 127 -52 26 -97 51 -100 55 -3 3 -22 12
-42 20 -21 7 -38 17 -38 22 0 4 -4 6 -9 3 -5 -4 -11 -3 -13 1 -1 5 -55 34
-118 66 -63 33 -119 63 -125 68 -5 5 -17 9 -26 9 -10 0 -19 3 -21 8 -1 4 -46
29 -98 56 -316 161 -506 260 -510 265 -3 4 -26 18 -52 31 -27 14 -48 28 -48
32 0 5 -5 8 -11 8 -18 0 -171 121 -234 185 -68 68 -95 101 -122 142 -9 15 -20
30 -24 33 -11 9 -55 95 -82 160 -69 172 -83 408 -33 585 2 6 6 24 11 40 4 17
10 35 14 40 3 6 7 18 8 28 2 10 10 25 18 34 8 8 13 19 10 24 -4 5 -1 9 4 9 6
0 11 5 11 11 0 42 207 266 263 285 9 3 17 10 17 15 0 6 5 7 10 4 6 -3 10 -1
10 4 0 6 7 11 15 11 8 0 15 5 15 11 0 5 4 8 9 4 5 -3 13 0 16 5 6 9 41 28 65
35 3 1 21 8 40 16 104 46 315 90 430 91 61 1 179 -9 225 -18 11 -2 48 -9 82
-14 34 -6 74 -15 88 -20 14 -5 25 -8 25 -5 0 2 16 -3 35 -11 19 -8 35 -12 35
-9 0 3 14 -1 30 -10 17 -9 30 -12 30 -8 0 4 5 2 12 -5 7 -7 22 -12 35 -12 13
0 23 -4 23 -10 0 -5 9 -10 19 -10 11 0 22 -4 26 -9 3 -5 19 -12 35 -16 17 -4
30 -11 30 -17 0 -6 3 -9 6 -5 3 3 28 -8 55 -24 28 -16 52 -29 55 -29 3 0 10
-5 17 -10 7 -6 38 -28 69 -48 124 -81 266 -219 363 -355 25 -34 49 -67 54 -73
14 -17 85 -145 105 -189 10 -22 26 -58 36 -80 29 -63 59 -153 52 -159 -3 -3 1
-6 8 -6 7 0 10 -3 7 -6 -3 -4 -2 -14 3 -24 5 -9 11 -28 14 -41 2 -13 11 -53
20 -88 8 -36 13 -68 10 -72 -2 -4 0 -9 5 -11 5 -1 11 -25 15 -53 3 -27 8 -60
10 -71 6 -29 18 -183 21 -269 4 -91 3 -87 17 -79 6 4 26 7 45 6 20 -1 31 3 28
8 -9 15 5 12 21 -5 10 -10 22 -12 37 -6 12 4 27 6 33 4 6 -2 9 10 6 31 -2 18
0 36 6 40 5 3 9 -5 9 -17 -1 -59 2 -68 20 -58 10 5 26 5 41 0 15 -6 21 -5 17
1 -3 6 -3 10 2 10 6 0 10 1876 4 1935 -1 7 -363 10 -1077 10 -592 0 -1077 -1
-1078 -3z m2061 -1784 c-3 -8 -6 -5 -6 6 -1 11 2 17 5 13 3 -3 4 -12 1 -19z
m13 -22 c0 -3 -4 -8 -10 -11 -5 -3 -10 -1 -10 4 0 6 5 11 10 11 6 0 10 -2 10
-4z m0 -47 c0 -5 -4 -9 -8 -9 -5 0 -9 7 -9 15 0 8 4 12 9 9 4 -3 8 -9 8 -15z
m-103 -4 c0 -8 -4 -15 -9 -15 -4 0 -8 7 -8 15 0 8 4 15 8 15 5 0 9 -7 9 -15z
m3 -55 c0 -5 -4 -10 -10 -10 -5 0 -10 5 -10 10 0 6 5 10 10 10 6 0 10 -4 10
-10z m0 -4035 c0 -8 -4 -15 -8 -15 -5 0 -9 7 -9 15 0 8 4 15 9 15 4 0 8 -7 8
-15z m100 -20 c0 -8 -4 -15 -10 -15 -5 0 -7 7 -4 15 4 8 8 15 10 15 2 0 4 -7
4 -15z"/>
<path d="M5162 5956 c-10 -17 -8 -78 2 -81 6 -2 61 -6 121 -9 61 -2 146 -10
190 -16 107 -15 348 -78 357 -93 4 -7 8 -9 8 -5 0 6 35 -5 95 -32 11 -4 35
-14 53 -22 17 -7 32 -16 32 -20 0 -5 7 -8 15 -8 14 0 184 -94 195 -108 3 -4
17 -14 31 -22 31 -18 90 -64 131 -102 16 -16 31 -28 33 -28 3 0 38 -34 80 -75
41 -41 73 -75 70 -75 -4 0 18 -27 65 -79 23 -24 129 -189 143 -219 6 -15 19
-32 27 -39 8 -7 12 -13 8 -13 -4 0 4 -20 17 -45 14 -25 26 -48 26 -52 0 -5 6
-21 14 -38 47 -107 105 -307 120 -413 2 -15 6 -43 9 -62 11 -74 17 -148 19
-217 0 -40 3 -73 6 -74 3 0 23 -2 44 -3 37 -2 38 0 35 25 -3 18 0 25 8 22 6
-2 11 -14 10 -26 -1 -18 5 -21 41 -22 23 0 40 2 37 6 -2 4 -1 10 4 13 5 3 7
19 4 36 -2 16 0 30 5 30 5 0 9 -19 9 -42 -1 -42 -1 -42 38 -43 44 -1 59 21 45
68 -4 15 -4 25 0 22 5 -2 9 6 9 20 0 14 -4 22 -9 20 -4 -3 -4 7 0 23 5 17 5
36 -1 47 -8 13 -7 16 1 11 14 -9 10 36 -4 46 -6 5 -6 8 2 8 13 0 12 18 -1 39
-6 8 -5 12 0 8 11 -6 10 116 -1 134 -5 7 -4 10 1 6 13 -7 12 356 -1 365 -6 5
-6 8 2 8 13 0 12 18 -1 39 -6 8 -5 12 0 8 11 -6 10 116 -1 134 -5 8 -4 10 3 5
15 -9 12 36 -3 46 -6 5 -6 8 2 8 12 0 12 17 0 37 -4 6 -2 15 4 19 8 4 7 9 -2
15 -9 6 -10 9 -2 9 13 0 12 18 -1 39 -6 8 -5 12 0 8 11 -6 10 116 -1 134 -5 8
-4 10 3 5 15 -9 12 36 -3 46 -6 5 -6 8 2 8 12 0 12 17 0 37 -4 6 -2 15 4 19 8
4 7 9 -2 15 -9 6 -10 9 -2 9 13 0 12 18 -1 39 -6 8 -5 12 0 8 11 -6 10 116 -1
134 -5 8 -4 10 3 5 15 -9 12 36 -3 46 -6 5 -6 8 2 8 12 0 12 17 0 37 -4 6 -2
15 4 19 8 4 7 9 -2 15 -9 6 -10 9 -2 9 13 0 12 18 -1 39 -6 9 -5 12 0 8 13 -8
12 105 -1 119 -7 8 -16 9 -27 3 -10 -6 -18 -6 -18 -2 0 12 -2091 10 -2098 -1z
m2055 -1818 c-3 -8 -6 -5 -6 6 -1 11 2 17 5 13 3 -3 4 -12 1 -19z m-97 -12
c-6 -8 -6 -16 0 -22 6 -6 5 -15 -1 -24 -9 -13 -10 -13 -6 2 3 9 3 19 -1 22
-12 13 -9 44 5 39 9 -4 10 -9 3 -17z"/>
<path d="M472 3996 c-4 -6 -7 -445 -7 -976 l1 -965 48 -2 c27 -1 55 -4 62 -7
8 -3 14 -2 14 2 0 4 15 6 32 5 18 -1 33 -2 33 -3 0 -1 8 -3 18 -5 9 -2 17 2
17 8 0 8 3 7 9 -1 11 -17 21 -17 32 0 5 7 9 8 9 2 0 -14 30 -14 30 0 0 7 3 7
8 1 4 -6 75 -10 177 -10 102 0 173 4 177 10 5 6 8 6 8 -1 0 -14 30 -14 30 0 0
6 4 5 9 -2 11 -17 21 -17 32 0 5 7 9 8 9 2 0 -14 30 -14 30 0 0 7 3 7 8 1 9
-13 852 -14 845 -1 -4 5 0 6 7 1 19 -12 140 -12 140 0 0 5 4 4 9 -3 4 -8 12
-14 16 -14 4 0 12 6 16 14 5 7 9 8 9 2 0 -14 30 -14 30 0 0 7 3 7 8 1 11 -15
32 -17 32 -3 0 8 3 9 8 3 4 -5 23 -10 42 -10 19 0 38 5 42 10 5 6 8 5 8 -3 0
-7 5 -10 10 -7 6 4 39 7 74 7 61 1 64 2 68 27 7 49 -1 63 -33 59 -16 -3 -29
-2 -29 1 0 3 -26 6 -58 7 -62 1 -154 9 -217 19 -73 11 -260 59 -263 67 -2 4
-8 6 -13 3 -5 -3 -18 -1 -29 5 -12 6 -29 13 -38 15 -9 2 -30 9 -47 16 -16 7
-33 12 -37 11 -5 -1 -8 2 -8 8 0 5 -8 10 -17 10 -10 0 -33 9 -50 20 -18 11
-33 18 -33 15 0 -2 -21 9 -47 25 -26 17 -50 30 -55 30 -10 0 -178 114 -205
140 -13 11 -23 19 -23 16 0 -7 -84 70 -139 127 -25 27 -62 65 -82 85 -42 45
-179 238 -179 254 0 6 -10 19 -22 29 -11 11 -18 19 -15 19 4 0 -11 35 -32 78
-72 144 -150 382 -166 507 -2 22 -7 51 -10 65 -6 33 -16 149 -18 230 l-2 65
-92 2 c-64 1 -93 -3 -94 -10 -1 -7 -1 -24 -1 -39 0 -16 -3 -28 -7 -28 -4 0 -7
17 -7 37 1 37 0 38 -36 39 -21 1 -41 -4 -46 -10z m195 -26 c1 -11 -2 -20 -5
-20 -4 0 -8 9 -9 20 -1 11 2 20 5 20 4 0 8 -9 9 -20z m3 -50 c0 -11 -4 -20 -9
-20 -5 0 -7 9 -4 20 3 11 7 20 9 20 2 0 4 -9 4 -20z m-100 -26 c0 -8 -5 -12
-10 -9 -6 4 -8 11 -5 16 9 14 15 11 15 -7z m103 -19 c4 -8 3 -16 -1 -19 -4 -3
-9 4 -9 15 -2 23 3 25 10 4z"/>
</g>
</svg>
